<svg width="1024" height="1024" viewBox="0 0 1024 1024" fill="none" xmlns="http://www.w3.org/2000/svg">
<path d="M512 1024C794.77 1024 1024 794.77 1024 512C1024 229.23 794.77 0 512 0C229.23 0 0 229.23 0 512C0 794.77 229.23 1024 512 1024Z" fill="black"/>
<path d="M346.393 541.881H677.663C689.653 541.881 701.151 546.644 709.63 555.122C718.108 563.6 722.871 575.099 722.871 587.089V737.99C722.871 749.98 718.108 761.479 709.63 769.957C701.151 778.435 689.653 783.198 677.663 783.198H301.184V587.347C301.15 581.389 302.295 575.482 304.551 569.968C306.808 564.453 310.133 559.439 314.334 555.213C318.535 550.988 323.531 547.635 329.032 545.347C334.534 543.059 340.434 541.881 346.393 541.881Z" fill="white"/>
<path d="M346.392 271.044H587.297C593.234 271.044 599.112 272.213 604.597 274.485C610.082 276.757 615.066 280.087 619.264 284.285C623.462 288.483 626.792 293.467 629.064 298.952C631.336 304.437 632.505 310.315 632.505 316.252V406.566C632.505 412.503 631.336 418.381 629.064 423.866C626.792 429.351 623.462 434.335 619.264 438.533C615.066 442.731 610.082 446.061 604.597 448.333C599.112 450.605 593.234 451.774 587.297 451.774H301.184V316.252C301.184 310.315 302.353 304.437 304.625 298.952C306.897 293.467 310.227 288.483 314.425 284.285C318.623 280.087 323.607 276.757 329.091 274.485C334.576 272.213 340.455 271.044 346.392 271.044Z" fill="white"/>
</svg>
